<svg width="113" height="123" viewBox="0 0 113 123" fill="none" xmlns="http://www.w3.org/2000/svg">
<g clip-path="url(#clip0_19_70)">
<path d="M44.1298 102.06C42.9898 102.09 41.9898 101.25 41.8298 100.1C41.6598 98.9002 42.4698 97.7902 43.6498 97.5602C42.3498 90.1902 38.7998 86.1302 35.0498 81.8402C32.1298 78.5002 29.0998 75.0302 26.7098 69.9202C24.3598 64.8902 23.0698 59.6902 23.1098 54.2902C23.1598 48.8902 24.5298 43.3302 27.5098 37.5802C27.5298 37.5402 27.5498 37.5102 27.5698 37.4702C31.4798 30.8502 36.9498 26.4302 43.0398 23.9502C48.1498 21.8602 53.6998 21.1502 59.1398 21.6502C64.5598 22.1502 69.8698 23.8502 74.5098 26.5902C80.4098 30.0802 85.2598 35.2602 87.9298 41.8002C89.3698 45.3402 90.3498 49.2902 90.4698 53.6202C90.5898 57.9302 89.8498 62.5802 87.8598 67.5002C85.1998 74.0902 81.6798 78.1802 78.3898 82.0102C75.3598 85.5402 72.5398 88.8202 70.9698 93.8502C71.8598 94.0602 72.5598 94.7902 72.6998 95.7502C72.8698 96.9902 71.9998 98.1402 70.7598 98.3102L69.9898 98.4202C69.8498 99.5102 69.7598 100.68 69.7198 101.93L69.9698 101.89C71.2098 101.72 72.3598 102.59 72.5298 103.83C72.6998 105.07 71.8298 106.22 70.5898 106.39L69.8098 106.5C69.8198 106.65 69.8298 106.8 69.8398 106.95C69.9098 107.83 69.9198 108.68 69.8698 109.49L69.9998 109.47C71.2498 109.32 72.3798 110.21 72.5398 111.45C72.6898 112.7 71.7998 113.83 70.5598 113.99L68.8798 114.2C67.6798 117.31 65.5398 119.68 63.0098 121.14C61.2698 122.15 59.3398 122.73 57.3998 122.85C55.4298 122.97 53.4398 122.6 51.6198 121.72C49.5398 120.7 47.6798 119.01 46.3298 116.58C45.6798 116.25 45.1998 115.61 45.0998 114.83C45.0598 114.52 45.0898 114.22 45.1698 113.94C44.7798 112.78 44.4898 111.51 44.2998 110.11L44.2298 110.12C42.9898 110.29 41.8398 109.42 41.6698 108.18C41.4998 106.94 42.3698 105.79 43.6098 105.62L44.1498 105.54C44.1898 104.32 44.1798 103.16 44.1298 102.06ZM2.17979 58.8602C1.00979 58.8902 0.0397917 57.9802 -0.000208349 56.8102C-0.0402083 55.6402 0.879792 54.6702 2.04979 54.6302L10.7498 54.3302C11.9198 54.2902 12.8898 55.2102 12.9298 56.3802C12.9698 57.5502 12.0498 58.5202 10.8798 58.5602L2.17979 58.8602ZM110.68 50.2502C111.84 50.1302 112.88 50.9802 113 52.1402C113.12 53.3002 112.27 54.3402 111.11 54.4602L102.45 55.3702C101.29 55.4902 100.25 54.6402 100.13 53.4802C100.01 52.3202 100.86 51.2802 102.02 51.1602L110.68 50.2502ZM94.9098 14.7802C95.5598 13.8102 96.8698 13.5502 97.8398 14.2002C98.8098 14.8502 99.0698 16.1602 98.4198 17.1302L93.5798 24.3702C92.9298 25.3402 91.6198 25.6002 90.6498 24.9502C89.6798 24.3002 89.4198 22.9902 90.0698 22.0202L94.9098 14.7802ZM57.6298 2.06023C57.6598 0.890225 58.6298 -0.029775 59.7898 0.000225025C60.9598 0.030225 61.8798 1.00023 61.8498 2.16023L61.6298 10.8602C61.5998 12.0302 60.6298 12.9502 59.4698 12.9202C58.2998 12.8902 57.3798 11.9202 57.4098 10.7602L57.6298 2.06023ZM13.8798 15.5302C13.0198 14.7302 12.9798 13.3902 13.7698 12.5402C14.5698 11.6802 15.9098 11.6402 16.7598 12.4302L23.1298 18.3702C23.9898 19.1702 24.0298 20.5102 23.2398 21.3602C22.4398 22.2202 21.0998 22.2602 20.2498 21.4702L13.8798 15.5302ZM47.8798 96.9502L66.3698 94.3202C67.9598 87.6202 71.4198 83.5902 75.1698 79.2402C78.2498 75.6602 81.5298 71.8402 83.9298 65.9002C85.6898 61.5502 86.3398 57.4702 86.2398 53.7102C86.1398 49.9602 85.2798 46.5002 83.9998 43.3702C81.6998 37.7402 77.4898 33.2602 72.3498 30.2202C68.2398 27.7902 63.5498 26.2802 58.7598 25.8502C53.9898 25.4102 49.1198 26.0402 44.6298 27.8702C39.3698 30.0202 34.6398 33.8402 31.2398 39.5902C28.5998 44.7102 27.3798 49.6102 27.3398 54.3202C27.2998 59.0602 28.4498 63.6502 30.5398 68.1202C32.6698 72.6802 35.5098 75.9202 38.2298 79.0402C42.4698 83.9002 46.4798 88.4902 47.8798 96.9502ZM65.6198 99.0202L48.3498 101.47C48.3998 102.57 48.4198 103.72 48.3998 104.94L65.4498 102.52C65.4698 101.29 65.5198 100.12 65.6198 99.0202ZM48.4898 109.52C48.6098 110.44 48.7898 111.28 49.0198 112.06L65.5698 110.02C65.6798 109.16 65.6998 108.25 65.6198 107.28V107.26L65.6098 107.09L48.4898 109.52ZM51.3698 116.36C52.0098 117.03 52.7198 117.55 53.4698 117.91C54.6198 118.47 55.8898 118.7 57.1398 118.63C58.4298 118.55 59.7098 118.16 60.8798 117.48C61.9798 116.84 62.9698 115.95 63.7598 114.83L51.3698 116.36Z" fill="white"/>
</g>
<defs>
<clipPath id="clip0_19_70">
<rect width="113.01" height="122.88" fill="white"/>
</clipPath>
</defs>
</svg>
