<svg width="640" height="640" viewBox="0 0 640 640" fill="none" xmlns="http://www.w3.org/2000/svg">
<path d="M192 112H304V200C304 239.8 336.2 272 376 272H464V512C464 520.8 456.8 528 448 528H192C183.2 528 176 520.8 176 512V128C176 119.2 183.2 112 192 112ZM352 131.9L444.1 224H376C362.7 224 352 213.3 352 200V131.9ZM192 64C156.7 64 128 92.7 128 128V512C128 547.3 156.7 576 192 576H448C483.3 576 512 547.3 512 512V250.5C512 233.5 505.3 217.2 493.3 205.2L370.7 82.7C358.7 70.7 342.5 64 325.5 64H192ZM248 320C234.7 320 224 330.7 224 344C224 357.3 234.7 368 248 368H392C405.3 368 416 357.3 416 344C416 330.7 405.3 320 392 320H248ZM248 416C234.7 416 224 426.7 224 440C224 453.3 234.7 464 248 464H392C405.3 464 416 453.3 416 440C416 426.7 405.3 416 392 416H248Z" fill="white"/>
</svg>
