<svg width="576" height="512" viewBox="0 0 576 512" fill="none" xmlns="http://www.w3.org/2000/svg">
<path d="M384 0C419.3 0 448 28.7 448 64V448C448 483.3 419.3 512 384 512H192C156.7 512 128 483.3 128 448V64C128 28.7 156.7 0 192 0H384ZM248 416C234.7 416 224 426.7 224 440C224 453.3 234.7 464 248 464H328C341.3 464 352 453.3 352 440C352 426.7 341.3 416 328 416H248ZM48.8 133.4C58.2 125.7 72.1 126.3 80.9 135.1C90.3 144.5 90.3 159.7 80.9 169L49.9 200L75.3 225.4L78.2 228.6C84.5 236.3 88 246 88 256C88 267.5 83.4 278.5 75.3 286.6L49.9 312L80.9 343L82.6 344.8C90.3 354.2 89.7 368.1 80.9 376.9C72.1 385.7 58.2 386.2 48.8 378.6L47 377L12.7 342.6C5.6 335.5 1.2 326.2 0.200001 316.3L0 312L0.200001 307.7C1.2 297.8 5.6 288.5 12.7 281.4L38.1 256L12.7 230.6C5.6 223.5 1.2 214.2 0.200001 204.3L0 200L0.200001 195.7C1.2 185.8 5.6 176.5 12.7 169.4L47 135L48.8 133.4ZM495 135C503.8 126.2 517.7 125.7 527.1 133.3L528.9 135L563.2 169.3C570.3 176.4 574.7 185.7 575.7 195.6L575.9 199.9L575.7 204.2C574.7 214.1 570.3 223.4 563.2 230.5L537.8 255.9L563.2 281.3C570.3 288.4 574.7 297.7 575.7 307.6L575.9 311.9L575.7 316.2C574.7 326.1 570.3 335.4 563.2 342.5L528.9 376.8L527.1 378.5C517.7 386.2 503.8 385.6 495 376.8C486.2 368 485.7 354.1 493.3 344.7L495 342.9L526 311.9L500.6 286.5C492.5 278.4 487.9 267.4 487.9 255.9C487.9 245.9 491.4 236.2 497.7 228.5L500.6 225.3L526 199.9L495 168.9C485.6 159.5 485.6 144.3 495 135Z" fill="white"/>
</svg>
