<svg width="123" height="123" viewBox="0 0 123 123" fill="none" xmlns="http://www.w3.org/2000/svg">
<g clip-path="url(#clip0_19_73)">
<path d="M97.977 18.705C97.647 18.375 97.307 18.137 96.957 17.989C96.629 17.85 96.246 17.782 95.807 17.782C95.366 17.782 94.975 17.852 94.643 17.993C94.299 18.138 93.967 18.372 93.649 18.695L93.628 18.716L87.421 24.904C86.491 25.829 85.054 25.932 84.011 25.217C83.281 24.745 82.503 24.29 81.687 23.849C80.822 23.381 79.974 22.961 79.146 22.581C78.283 22.187 77.402 21.816 76.505 21.468C75.692 21.152 74.786 20.83 73.798 20.504C72.667 20.131 71.948 19.079 71.948 17.948V8.43C71.948 7.974 71.876 7.571 71.733 7.22C71.59 6.873 71.372 6.55 71.071 6.25C70.778 5.957 70.46 5.74 70.112 5.599C69.762 5.456 69.358 5.385 68.901 5.385H56.956C56.533 5.385 56.158 5.453 55.83 5.589C55.482 5.732 55.141 5.966 54.804 6.292L54.8 6.295C54.504 6.591 54.286 6.906 54.146 7.241C54.002 7.584 53.93 7.98 53.93 8.43V17.144C53.93 18.469 52.973 19.57 51.713 19.795C50.756 20.023 49.872 20.259 49.067 20.506C48.185 20.776 47.298 21.083 46.409 21.43C46.365 21.447 46.321 21.463 46.277 21.477C45.5 21.779 44.681 22.129 43.821 22.526C42.947 22.929 42.133 23.338 41.379 23.749C40.316 24.328 39.034 24.113 38.214 23.306L38.213 23.307L31.339 16.532C31.318 16.511 31.297 16.49 31.276 16.469C30.983 16.159 30.675 15.933 30.352 15.792C30.042 15.657 29.675 15.588 29.247 15.588C28.822 15.588 28.442 15.66 28.108 15.803C27.742 15.959 27.392 16.203 27.056 16.532L27.054 16.534L18.715 24.892L18.71 24.898L18.715 24.903C18.373 25.245 18.131 25.585 17.988 25.923C17.849 26.251 17.78 26.634 17.78 27.072C17.78 27.514 17.85 27.904 17.991 28.238C18.136 28.581 18.369 28.913 18.693 29.231L18.714 29.252L24.902 35.46C25.827 36.39 25.93 37.827 25.215 38.87C24.743 39.601 24.288 40.378 23.848 41.194C23.38 42.06 22.96 42.906 22.58 43.736C22.185 44.598 21.814 45.48 21.465 46.377C21.149 47.189 20.828 48.095 20.502 49.083C20.129 50.215 19.076 50.933 17.946 50.933L8.431 50.934C7.973 50.934 7.571 51.005 7.22 51.147C6.874 51.289 6.554 51.505 6.262 51.798L6.251 51.81C5.958 52.103 5.741 52.422 5.599 52.768C5.456 53.119 5.386 53.522 5.386 53.979V65.925C5.386 66.347 5.453 66.723 5.589 67.05C5.733 67.398 5.967 67.739 6.293 68.077L6.296 68.079C6.591 68.375 6.907 68.594 7.241 68.733C7.585 68.877 7.981 68.949 8.431 68.949H17.144C18.469 68.949 19.57 69.906 19.795 71.167C20.023 72.123 20.259 73.008 20.506 73.813C20.777 74.695 21.083 75.581 21.43 76.47C21.756 77.317 22.126 78.197 22.538 79.109C22.959 80.042 23.371 80.892 23.771 81.661C24.328 82.727 24.097 83.997 23.285 84.804L23.287 84.806L16.511 91.562L16.468 91.604C16.158 91.898 15.932 92.206 15.792 92.528C15.656 92.838 15.588 93.206 15.588 93.634C15.588 94.059 15.66 94.438 15.802 94.772C15.958 95.138 16.202 95.489 16.532 95.824L24.841 104.229C25.166 104.53 25.505 104.75 25.86 104.889C26.216 105.03 26.62 105.099 27.072 105.099C27.528 105.099 27.939 105.028 28.301 104.885C28.649 104.748 28.976 104.538 29.279 104.254L35.438 97.997C36.367 97.053 37.822 96.94 38.876 97.668C39.605 98.138 40.38 98.591 41.194 99.03C42.06 99.499 42.906 99.919 43.736 100.298C44.598 100.694 45.48 101.065 46.377 101.413C47.189 101.728 48.094 102.05 49.083 102.376C50.215 102.749 50.933 103.802 50.933 104.932L50.934 114.45C50.934 114.906 51.005 115.309 51.148 115.66C51.29 116.007 51.506 116.326 51.799 116.619L51.804 116.625L51.809 116.619C52.396 117.206 53.116 117.495 53.978 117.495H65.922C66.346 117.495 66.721 117.428 67.049 117.292C67.397 117.148 67.738 116.914 68.074 116.588L68.078 116.585C68.373 116.289 68.592 115.974 68.732 115.64C68.877 115.296 68.949 114.901 68.949 114.451V105.736C68.949 104.412 69.904 103.31 71.166 103.086C72.121 102.858 73.006 102.621 73.812 102.375C74.693 102.104 75.58 101.798 76.468 101.452C77.316 101.125 78.197 100.755 79.111 100.343C80.041 99.922 80.892 99.511 81.658 99.111C82.726 98.554 83.996 98.786 84.803 99.597L84.805 99.595L91.561 106.37L91.602 106.413C91.899 106.725 92.207 106.95 92.528 107.09C92.842 107.225 93.221 107.294 93.673 107.294C94.116 107.294 94.501 107.222 94.833 107.079C95.167 106.934 95.478 106.711 95.761 106.412C95.792 106.378 95.825 106.345 95.861 106.312L104.23 98.04C104.529 97.716 104.75 97.376 104.888 97.021C105.029 96.665 105.099 96.26 105.099 95.808C105.099 95.352 105.029 94.941 104.886 94.579C104.747 94.231 104.538 93.905 104.253 93.602L97.997 87.442C97.052 86.513 96.94 85.059 97.667 84.004C98.138 83.275 98.591 82.5 99.03 81.687C99.499 80.822 99.919 79.975 100.298 79.145C100.693 78.283 101.064 77.401 101.413 76.504C101.727 75.692 102.05 74.786 102.376 73.797C102.749 72.665 103.802 71.947 104.933 71.947L114.449 71.946C114.906 71.946 115.31 71.875 115.66 71.732C116.006 71.59 116.326 71.374 116.619 71.082L116.629 71.071C116.922 70.777 117.141 70.458 117.281 70.111C117.424 69.761 117.494 69.358 117.494 68.901V56.955C117.494 56.533 117.428 56.157 117.291 55.829C117.148 55.482 116.914 55.14 116.588 54.802L116.584 54.799C116.289 54.503 115.973 54.285 115.639 54.145C115.297 54.001 114.901 53.929 114.45 53.929H105.737C104.395 53.929 103.284 52.95 103.079 51.667C102.868 50.824 102.63 49.969 102.36 49.101C102.1 48.268 101.796 47.387 101.44 46.456C101.422 46.411 101.407 46.365 101.393 46.319C101.055 45.434 100.709 44.602 100.354 43.823C99.969 42.98 99.561 42.165 99.129 41.377C98.551 40.314 98.766 39.032 99.572 38.212V38.211L106.347 31.337C106.368 31.316 106.388 31.295 106.41 31.274C106.721 30.981 106.947 30.673 107.088 30.351C107.223 30.041 107.293 29.674 107.293 29.246C107.293 28.821 107.221 28.441 107.078 28.107C106.922 27.741 106.678 27.391 106.348 27.055L106.346 27.053L97.987 18.714L97.977 18.705ZM99.039 13.044C100.041 13.467 100.951 14.086 101.771 14.906L101.773 14.907L110.154 23.269L110.175 23.29C110.982 24.11 111.599 25.013 112.021 26.003C112.457 27.024 112.677 28.105 112.677 29.246C112.677 30.404 112.452 31.486 112.009 32.497C111.577 33.489 110.946 34.371 110.13 35.15L104.763 40.595C104.921 40.924 105.079 41.257 105.232 41.594C105.662 42.532 106.056 43.472 106.414 44.413C106.434 44.455 106.451 44.498 106.467 44.542C106.824 45.479 107.166 46.475 107.492 47.523C107.597 47.861 107.699 48.201 107.797 48.544H114.449C115.605 48.544 116.687 48.756 117.701 49.18C118.697 49.597 119.597 50.212 120.4 51.021L120.457 51.078C121.248 51.896 121.848 52.798 122.256 53.788C122.674 54.795 122.881 55.85 122.881 56.955V68.9C122.881 70.049 122.678 71.125 122.268 72.13C121.858 73.133 121.247 74.044 120.43 74.863L120.426 74.866L120.42 74.873L120.416 74.877C119.596 75.694 118.686 76.307 117.68 76.717C116.674 77.126 115.598 77.33 114.45 77.33H106.841C106.708 77.688 106.57 78.058 106.421 78.436C106.04 79.415 105.628 80.394 105.181 81.372C104.718 82.383 104.247 83.338 103.767 84.229C103.609 84.521 103.447 84.812 103.281 85.103L108.031 89.779C108.066 89.812 108.099 89.845 108.135 89.881C108.914 90.705 109.5 91.62 109.895 92.62C110.291 93.624 110.487 94.688 110.487 95.806C110.487 96.92 110.292 97.975 109.899 98.975C109.506 99.972 108.926 100.883 108.155 101.709C108.128 101.737 108.1 101.766 108.071 101.794L99.641 110.127C98.85 110.956 97.959 111.59 96.959 112.02C95.949 112.456 94.857 112.677 93.676 112.677C92.52 112.677 91.43 112.451 90.406 112.01C89.392 111.571 88.496 110.936 87.715 110.112L82.371 104.754C82.014 104.926 81.664 105.089 81.324 105.243C80.414 105.653 79.441 106.058 78.408 106.457C77.437 106.835 76.424 107.184 75.373 107.506C75.023 107.613 74.678 107.715 74.338 107.812V114.45C74.338 115.605 74.125 116.688 73.701 117.701C73.283 118.698 72.67 119.597 71.859 120.401L71.802 120.459C70.984 121.248 70.081 121.847 69.093 122.257C68.085 122.674 67.03 122.881 65.925 122.881H53.979C51.63 122.881 49.646 122.071 48.002 120.427L48.007 120.422C47.187 119.601 46.572 118.688 46.162 117.681C45.752 116.675 45.548 115.6 45.548 114.451V106.842C45.189 106.709 44.82 106.57 44.441 106.422C43.463 106.041 42.484 105.629 41.506 105.181C40.495 104.719 39.54 104.247 38.648 103.766C38.357 103.609 38.066 103.447 37.775 103.281L33.099 108.031C33.066 108.066 33.032 108.1 32.997 108.134C32.173 108.915 31.258 109.501 30.258 109.895C29.254 110.291 28.19 110.488 27.072 110.488C25.958 110.488 24.902 110.293 23.903 109.899C22.906 109.506 21.996 108.926 21.169 108.156L21.17 108.154C21.141 108.128 21.112 108.1 21.085 108.071L12.704 99.593C11.898 98.773 11.281 97.869 10.859 96.879C10.424 95.857 10.203 94.777 10.203 93.637C10.203 92.479 10.428 91.397 10.87 90.385C11.307 89.386 11.941 88.499 12.767 87.715L18.126 82.371C17.954 82.014 17.79 81.664 17.636 81.321C17.225 80.412 16.821 79.441 16.423 78.409C16.045 77.438 15.695 76.425 15.373 75.373C15.266 75.022 15.164 74.678 15.067 74.338H8.431C7.275 74.338 6.192 74.125 5.18 73.701C4.182 73.284 3.283 72.67 2.48 71.86L2.422 71.8C1.632 70.983 1.033 70.08 0.624 69.091C0.207 68.083 0 67.028 0 65.925V53.979C0 52.83 0.204 51.754 0.614 50.749C1.024 49.744 1.635 48.833 2.453 48.014L2.454 48.013L2.46 48.008L2.465 48.003C3.285 47.185 4.195 46.573 5.201 46.163C6.206 45.753 7.282 45.55 8.431 45.55H16.04C16.172 45.191 16.312 44.822 16.46 44.443C16.84 43.465 17.253 42.486 17.701 41.507C18.163 40.496 18.634 39.541 19.116 38.65C19.276 38.353 19.442 38.056 19.612 37.759L14.931 33.063L14.929 33.062C14.102 32.249 13.476 31.334 13.049 30.323C12.612 29.291 12.396 28.205 12.396 27.074C12.396 25.945 12.611 24.869 13.045 23.842C13.475 22.825 14.095 21.91 14.908 21.097L14.913 21.102L23.269 12.726L23.29 12.705C24.11 11.899 25.013 11.282 26.003 10.86C27.025 10.425 28.105 10.203 29.246 10.203C30.403 10.203 31.485 10.428 32.497 10.87C33.489 11.303 34.371 11.933 35.15 12.75L40.591 18.112C40.918 17.95 41.244 17.795 41.569 17.645C42.406 17.259 43.33 16.87 44.341 16.478C44.384 16.458 44.428 16.44 44.472 16.423C45.443 16.045 46.457 15.695 47.509 15.373C47.859 15.266 48.204 15.164 48.544 15.067V8.43C48.544 7.275 48.757 6.192 49.181 5.18C49.598 4.182 50.213 3.283 51.022 2.479L51.079 2.422C51.897 1.632 52.799 1.034 53.788 0.625C54.796 0.207 55.851 0 56.956 0H68.9C70.048 0 71.125 0.203 72.13 0.613C73.14 1.025 74.054 1.64 74.878 2.463C75.692 3.279 76.306 4.191 76.718 5.2C77.128 6.205 77.331 7.281 77.331 8.429V16.039C77.69 16.172 78.058 16.312 78.438 16.459C79.415 16.839 80.393 17.252 81.372 17.699C82.384 18.161 83.339 18.633 84.229 19.115C84.528 19.276 84.825 19.441 85.122 19.611L89.817 14.93L89.819 14.929C90.632 14.102 91.548 13.476 92.557 13.049C93.59 12.612 94.674 12.396 95.805 12.396C96.936 12.396 98.012 12.61 99.039 13.044ZM61.44 35.346C63.221 35.346 64.959 35.516 66.654 35.854C68.32 36.187 69.972 36.698 71.607 37.388L71.625 37.396L71.629 37.388C73.19 38.062 74.67 38.867 76.07 39.805C77.457 40.734 78.742 41.783 79.92 42.95L79.93 42.961C81.098 44.14 82.147 45.424 83.076 46.812C84.014 48.212 84.818 49.692 85.492 51.253C85.523 51.327 85.551 51.401 85.576 51.476C86.222 53.045 86.707 54.628 87.025 56.227C87.365 57.923 87.533 59.66 87.533 61.44C87.533 63.221 87.365 64.959 87.025 66.654C86.693 68.321 86.181 69.971 85.492 71.607L85.484 71.625L85.492 71.629C84.818 73.19 84.013 74.669 83.076 76.069C82.146 77.457 81.097 78.741 79.93 79.92L79.92 79.931C78.74 81.099 77.457 82.148 76.068 83.077C74.67 84.015 73.189 84.819 71.629 85.493C71.555 85.524 71.481 85.553 71.404 85.577C69.836 86.224 68.252 86.708 66.654 87.027C64.959 87.366 63.22 87.535 61.44 87.535C59.659 87.535 57.922 87.366 56.227 87.027C54.56 86.694 52.909 86.182 51.273 85.493L51.255 85.485L51.252 85.493C49.691 84.819 48.21 84.014 46.811 83.077C45.423 82.148 44.139 81.099 42.961 79.931L42.951 79.92C41.783 78.74 40.733 77.457 39.805 76.068C38.868 74.669 38.063 73.188 37.39 71.629C37.358 71.555 37.33 71.481 37.305 71.405C36.658 69.836 36.174 68.253 35.855 66.654C35.517 64.959 35.347 63.221 35.347 61.44C35.347 59.659 35.516 57.922 35.855 56.227C36.188 54.56 36.7 52.909 37.39 51.274L37.397 51.256L37.39 51.253C38.063 49.692 38.869 48.212 39.805 46.813C40.734 45.424 41.783 44.141 42.951 42.961L42.962 42.951C44.14 41.784 45.424 40.735 46.811 39.806C48.211 38.869 49.692 38.063 51.253 37.389C51.327 37.357 51.401 37.329 51.477 37.305C53.046 36.658 54.628 36.175 56.227 35.856C57.922 35.516 59.659 35.346 61.44 35.346ZM65.602 41.134C64.258 40.865 62.872 40.731 61.44 40.731C60.009 40.731 58.623 40.865 57.278 41.134C55.972 41.395 54.725 41.769 53.537 42.256C53.485 42.282 53.432 42.308 53.377 42.331C52.079 42.892 50.885 43.536 49.797 44.264C48.701 44.997 47.687 45.827 46.753 46.751C45.828 47.686 44.998 48.702 44.264 49.799C43.536 50.886 42.892 52.079 42.332 53.377L42.325 53.374C41.804 54.611 41.408 55.913 41.134 57.279C40.866 58.623 40.732 60.009 40.732 61.44C40.732 62.871 40.866 64.257 41.134 65.602C41.395 66.908 41.77 68.155 42.257 69.343C42.283 69.396 42.309 69.448 42.332 69.503C42.892 70.801 43.536 71.993 44.263 73.08C44.997 74.177 45.827 75.193 46.753 76.128C47.687 77.053 48.702 77.882 49.798 78.615C50.885 79.343 52.078 79.987 53.377 80.548L53.374 80.555C54.612 81.076 55.913 81.473 57.279 81.745C58.623 82.014 60.01 82.147 61.441 82.147C62.872 82.147 64.259 82.013 65.603 81.745C66.91 81.484 68.156 81.11 69.345 80.623C69.396 80.597 69.45 80.571 69.505 80.548C70.802 79.987 71.995 79.343 73.083 78.615C74.179 77.882 75.194 77.052 76.128 76.128C77.054 75.193 77.884 74.178 78.618 73.081C79.345 71.994 79.989 70.801 80.548 69.503L80.556 69.506C81.077 68.269 81.474 66.967 81.747 65.602C82.015 64.257 82.149 62.871 82.149 61.44C82.149 60.009 82.014 58.623 81.747 57.279C81.485 55.972 81.112 54.726 80.624 53.537C80.597 53.485 80.573 53.432 80.548 53.377C79.989 52.079 79.345 50.886 78.616 49.799C77.884 48.702 77.053 47.686 76.128 46.752C75.194 45.828 74.179 44.998 73.083 44.265C71.995 43.537 70.802 42.893 69.505 42.332L69.507 42.325C68.27 41.804 66.969 41.407 65.602 41.134Z" fill="white"/>
</g>
<defs>
<clipPath id="clip0_19_73">
<rect width="122.881" height="122.88" fill="white"/>
</clipPath>
</defs>
</svg>
